<?xml version="1.0" encoding="UTF-8" standalone="no"?><!DOCTYPE svg PUBLIC "-//W3C//DTD SVG 1.1//EN" "http://www.w3.org/Graphics/SVG/1.1/DTD/svg11.dtd"><svg width="100%" height="100%" viewBox="0 0 979 13" version="1.1" xmlns="http://www.w3.org/2000/svg" xmlns:xlink="http://www.w3.org/1999/xlink" xml:space="preserve" xmlns:serif="http://www.serif.com/" style="fill-rule:evenodd;clip-rule:evenodd;stroke-linejoin:round;stroke-miterlimit:1.41421;"><path d="M12.371,0l-12.371,0l0,12.371l12.371,0l0,-12.371Zm-2.474,9.897l-7.423,0l0,-7.422l7.423,0l0,7.422Z" style="fill:#ff6131;fill-rule:nonzero;"/><path d="M82.268,0c-3.416,0 -6.186,2.77 -6.186,6.186c0,3.416 2.77,6.185 6.186,6.185c3.416,0 6.186,-2.769 6.186,-6.185c0,-3.416 -2.77,-6.186 -6.186,-6.186m0,2.475c2.046,0 3.711,1.664 3.711,3.711c0,2.046 -1.665,3.71 -3.711,3.71c-2.046,0 -3.711,-1.664 -3.711,-3.71c0,-2.047 1.665,-3.711 3.711,-3.711" style="fill:#ff2e2e;fill-rule:nonzero;"/><path d="M27.835,0.619l0,11.135l-5.567,-5.568l5.567,-5.567Z" style="fill:#ff2e2e;fill-rule:nonzero;"/><path d="M21.031,6.186l-5.567,5.567l0,-11.134l5.567,5.567Z" style="fill:#ff2e2e;fill-rule:nonzero;"/><path d="M72.99,12.371l-12.371,0l12.371,-12.371l0,12.371Z" style="fill:#ff6131;fill-rule:nonzero;"/><path d="M36.495,12.371l-5.567,0c0,-3.054 2.513,-5.567 5.567,-5.567c3.054,0 5.567,2.513 5.567,5.567l-5.567,0Z" style="fill:#ff6131;fill-rule:nonzero;"/><path d="M36.495,0l-5.567,0c0,3.054 2.513,5.567 5.567,5.567c3.054,0 5.567,-2.513 5.567,-5.567l-5.567,0Z" style="fill:#ff6131;fill-rule:nonzero;"/><path d="M45.155,2.784c0,-1.537 1.246,-2.783 2.784,-2.783c1.537,0 2.783,1.246 2.783,2.783c0,1.537 -1.246,2.784 -2.783,2.784c-1.538,0 -2.784,-1.247 -2.784,-2.784" style="fill:#ff2e2e;fill-rule:nonzero;"/><path d="M45.155,9.588c0,-1.537 1.246,-2.784 2.784,-2.784c1.537,0 2.783,1.247 2.783,2.784c0,1.537 -1.246,2.783 -2.783,2.783c-1.538,0 -2.784,-1.246 -2.784,-2.783" style="fill:#ff2e2e;fill-rule:nonzero;"/><path d="M51.959,2.784c0,-1.537 1.246,-2.783 2.783,-2.783c1.538,0 2.784,1.246 2.784,2.783c0,1.537 -1.246,2.784 -2.784,2.784c-1.537,0 -2.783,-1.247 -2.783,-2.784" style="fill:#ff2e2e;fill-rule:nonzero;"/><path d="M51.959,9.588c0,-1.537 1.246,-2.784 2.783,-2.784c1.538,0 2.784,1.247 2.784,2.784c0,1.537 -1.246,2.783 -2.784,2.783c-1.537,0 -2.783,-1.246 -2.783,-2.783" style="fill:#ff2e2e;fill-rule:nonzero;"/><path d="M103.299,0l-12.371,0l0,12.371l12.371,0l0,-12.371Zm-2.474,9.897l-7.422,0l0,-7.422l7.422,0l0,7.422Z" style="fill:#ff2e2e;fill-rule:nonzero;"/><path d="M173.196,0c-3.416,0 -6.186,2.77 -6.186,6.186c0,3.416 2.77,6.185 6.186,6.185c3.417,0 6.186,-2.769 6.186,-6.185c0,-3.416 -2.769,-6.186 -6.186,-6.186m0,2.475c2.046,0 3.711,1.664 3.711,3.711c0,2.046 -1.665,3.71 -3.711,3.71c-2.046,0 -3.711,-1.664 -3.711,-3.71c0,-2.047 1.665,-3.711 3.711,-3.711" style="fill:#ff6131;fill-rule:nonzero;"/><path d="M118.763,0.619l0,11.135l-5.567,-5.568l5.567,-5.567Z" style="fill:#ff2e2e;fill-rule:nonzero;"/><path d="M111.959,6.186l-5.567,5.567l0,-11.134l5.567,5.567Z" style="fill:#ff2e2e;fill-rule:nonzero;"/><path d="M163.918,12.371l-12.371,0l12.371,-12.371l0,12.371Z" style="fill:#ff2e2e;fill-rule:nonzero;"/><path d="M127.423,12.371l-5.567,0c0,-3.054 2.513,-5.567 5.567,-5.567c3.054,0 5.567,2.513 5.567,5.567l-5.567,0Z" style="fill:#ff6131;fill-rule:nonzero;"/><path d="M127.423,0l-5.567,0c0,3.054 2.513,5.567 5.567,5.567c3.054,0 5.567,-2.513 5.567,-5.567l-5.567,0Z" style="fill:#ff6131;fill-rule:nonzero;"/><path d="M136.083,2.784c0,-1.537 1.246,-2.783 2.784,-2.783c1.537,0 2.783,1.246 2.783,2.783c0,1.537 -1.246,2.784 -2.783,2.784c-1.538,0 -2.784,-1.247 -2.784,-2.784" style="fill:#ffa631;fill-rule:nonzero;"/><path d="M136.083,9.588c0,-1.537 1.246,-2.784 2.784,-2.784c1.537,0 2.783,1.247 2.783,2.784c0,1.537 -1.246,2.783 -2.783,2.783c-1.538,0 -2.784,-1.246 -2.784,-2.783" style="fill:#ffa631;fill-rule:nonzero;"/><path d="M142.887,2.784c0,-1.537 1.246,-2.783 2.784,-2.783c1.537,0 2.783,1.246 2.783,2.783c0,1.537 -1.246,2.784 -2.783,2.784c-1.538,0 -2.784,-1.247 -2.784,-2.784" style="fill:#ffa631;fill-rule:nonzero;"/><path d="M142.887,9.588c0,-1.537 1.246,-2.784 2.784,-2.784c1.537,0 2.783,1.247 2.783,2.784c0,1.537 -1.246,2.783 -2.783,2.783c-1.538,0 -2.784,-1.246 -2.784,-2.783" style="fill:#ffa631;fill-rule:nonzero;"/><path d="M83.506,6.186c0,0.684 -0.554,1.237 -1.237,1.237c-0.683,0 -1.238,-0.553 -1.238,-1.237c0,-0.684 0.555,-1.237 1.238,-1.237c0.683,0 1.237,0.553 1.237,1.237" style="fill:#ff6131;fill-rule:nonzero;"/><path d="M194.845,0l-12.371,0l0,12.371l12.371,0l0,-12.371Zm-2.474,9.897l-7.422,0l0,-7.422l7.422,0l0,7.422Z" style="fill:#ff6131;fill-rule:nonzero;"/><path d="M210.31,0.619l0,11.135l-5.567,-5.568l5.567,-5.567Z" style="fill:#ff2e2e;fill-rule:nonzero;"/><path d="M203.506,6.186l-5.567,5.567l0,-11.134l5.567,5.567Z" style="fill:#ff2e2e;fill-rule:nonzero;"/><path d="M218.969,12.371l-5.567,0c0,-3.054 2.513,-5.567 5.567,-5.567c3.054,0 5.567,2.513 5.567,5.567l-5.567,0Z" style="fill:#ff6131;fill-rule:nonzero;"/><path d="M218.969,0l-5.567,0c0,3.054 2.513,5.567 5.567,5.567c3.054,0 5.567,-2.513 5.567,-5.567l-5.567,0Z" style="fill:#ff6131;fill-rule:nonzero;"/><path d="M227.629,2.784c0,-1.537 1.246,-2.783 2.784,-2.783c1.537,0 2.783,1.246 2.783,2.783c0,1.537 -1.246,2.784 -2.783,2.784c-1.538,0 -2.784,-1.247 -2.784,-2.784" style="fill:#ff2e2e;fill-rule:nonzero;"/><path d="M227.629,9.588c0,-1.537 1.246,-2.784 2.784,-2.784c1.537,0 2.783,1.247 2.783,2.784c0,1.537 -1.246,2.783 -2.783,2.783c-1.538,0 -2.784,-1.246 -2.784,-2.783" style="fill:#ff2e2e;fill-rule:nonzero;"/><path d="M234.433,2.784c0,-1.537 1.246,-2.783 2.784,-2.783c1.537,0 2.783,1.246 2.783,2.783c0,1.537 -1.246,2.784 -2.783,2.784c-1.538,0 -2.784,-1.247 -2.784,-2.784" style="fill:#ff2e2e;fill-rule:nonzero;"/><path d="M234.433,9.588c0,-1.537 1.246,-2.784 2.784,-2.784c1.537,0 2.783,1.247 2.783,2.784c0,1.537 -1.246,2.783 -2.783,2.783c-1.538,0 -2.784,-1.246 -2.784,-2.783" style="fill:#ff2e2e;fill-rule:nonzero;"/><path d="M258.432,0l-12.371,0l0,12.371l12.371,0l0,-12.371Zm-2.474,9.897l-7.423,0l0,-7.422l7.423,0l0,7.422Z" style="fill:#ff6131;fill-rule:nonzero;"/><path d="M328.329,0c-3.416,0 -6.186,2.77 -6.186,6.186c0,3.416 2.77,6.185 6.186,6.185c3.416,0 6.186,-2.769 6.186,-6.185c0,-3.416 -2.77,-6.186 -6.186,-6.186m0,2.475c2.046,0 3.711,1.664 3.711,3.711c0,2.046 -1.665,3.71 -3.711,3.71c-2.046,0 -3.711,-1.664 -3.711,-3.71c0,-2.047 1.665,-3.711 3.711,-3.711" style="fill:#ff2e2e;fill-rule:nonzero;"/><path d="M273.896,0.619l0,11.135l-5.567,-5.568l5.567,-5.567Z" style="fill:#ff2e2e;fill-rule:nonzero;"/><path d="M267.092,6.186l-5.567,5.567l0,-11.134l5.567,5.567Z" style="fill:#ff2e2e;fill-rule:nonzero;"/><path d="M319.05,12.371l-12.371,0l12.371,-12.371l0,12.371Z" style="fill:#ff6131;fill-rule:nonzero;"/><path d="M282.556,12.371l-5.567,0c0,-3.054 2.513,-5.567 5.567,-5.567c3.054,0 5.567,2.513 5.567,5.567l-5.567,0Z" style="fill:#ff6131;fill-rule:nonzero;"/><path d="M282.556,0l-5.567,0c0,3.054 2.513,5.567 5.567,5.567c3.054,0 5.567,-2.513 5.567,-5.567l-5.567,0Z" style="fill:#ff6131;fill-rule:nonzero;"/><path d="M291.216,2.784c0,-1.537 1.245,-2.783 2.783,-2.783c1.538,0 2.784,1.246 2.784,2.783c0,1.537 -1.246,2.784 -2.784,2.784c-1.538,0 -2.784,-1.247 -2.784,-2.784" style="fill:#ff2e2e;fill-rule:nonzero;"/><path d="M291.216,9.588c0,-1.537 1.245,-2.784 2.783,-2.784c1.538,0 2.784,1.247 2.784,2.784c0,1.537 -1.246,2.783 -2.784,2.783c-1.538,0 -2.784,-1.246 -2.784,-2.783" style="fill:#ff2e2e;fill-rule:nonzero;"/><path d="M298.02,2.784c0,-1.537 1.246,-2.783 2.783,-2.783c1.538,0 2.784,1.246 2.784,2.783c0,1.537 -1.246,2.784 -2.784,2.784c-1.537,0 -2.783,-1.247 -2.783,-2.784" style="fill:#ff2e2e;fill-rule:nonzero;"/><path d="M298.02,9.588c0,-1.537 1.246,-2.784 2.783,-2.784c1.538,0 2.784,1.247 2.784,2.784c0,1.537 -1.246,2.783 -2.784,2.783c-1.537,0 -2.783,-1.246 -2.783,-2.783" style="fill:#ff2e2e;fill-rule:nonzero;"/><path d="M349.36,0l-12.371,0l0,12.371l12.371,0l0,-12.371Zm-2.475,9.897l-7.423,0l0,-7.422l7.423,0l0,7.422Z" style="fill:#ff2e2e;fill-rule:nonzero;"/><path d="M419.256,0c-3.416,0 -6.186,2.77 -6.186,6.186c0,3.416 2.77,6.185 6.186,6.185c3.417,0 6.186,-2.769 6.186,-6.185c0,-3.416 -2.769,-6.186 -6.186,-6.186m0,2.475c2.046,0 3.711,1.664 3.711,3.711c0,2.046 -1.665,3.71 -3.711,3.71c-2.046,0 -3.711,-1.664 -3.711,-3.71c0,-2.047 1.665,-3.711 3.711,-3.711" style="fill:#ff6131;fill-rule:nonzero;"/><path d="M364.823,0.619l0,11.135l-5.567,-5.568l5.567,-5.567Z" style="fill:#ff2e2e;fill-rule:nonzero;"/><path d="M358.02,6.186l-5.567,5.567l0,-11.134l5.567,5.567Z" style="fill:#ff2e2e;fill-rule:nonzero;"/><path d="M409.978,12.371l-12.371,0l12.371,-12.371l0,12.371Z" style="fill:#ff2e2e;fill-rule:nonzero;"/><path d="M373.484,12.371l-5.567,0c0,-3.054 2.513,-5.567 5.567,-5.567c3.054,0 5.567,2.513 5.567,5.567l-5.567,0Z" style="fill:#ff6131;fill-rule:nonzero;"/><path d="M373.484,0l-5.567,0c0,3.054 2.513,5.567 5.567,5.567c3.054,0 5.567,-2.513 5.567,-5.567l-5.567,0Z" style="fill:#ff6131;fill-rule:nonzero;"/><path d="M382.143,2.784c0,-1.537 1.246,-2.783 2.784,-2.783c1.537,0 2.783,1.246 2.783,2.783c0,1.537 -1.246,2.784 -2.783,2.784c-1.538,0 -2.784,-1.247 -2.784,-2.784" style="fill:#ffa631;fill-rule:nonzero;"/><path d="M382.143,9.588c0,-1.537 1.246,-2.784 2.784,-2.784c1.537,0 2.783,1.247 2.783,2.784c0,1.537 -1.246,2.783 -2.783,2.783c-1.538,0 -2.784,-1.246 -2.784,-2.783" style="fill:#ffa631;fill-rule:nonzero;"/><path d="M388.947,2.784c0,-1.537 1.246,-2.783 2.783,-2.783c1.538,0 2.784,1.246 2.784,2.783c0,1.537 -1.246,2.784 -2.784,2.784c-1.537,0 -2.783,-1.247 -2.783,-2.784" style="fill:#ffa631;fill-rule:nonzero;"/><path d="M388.947,9.588c0,-1.537 1.246,-2.784 2.783,-2.784c1.538,0 2.784,1.247 2.784,2.784c0,1.537 -1.246,2.783 -2.784,2.783c-1.537,0 -2.783,-1.246 -2.783,-2.783" style="fill:#ffa631;fill-rule:nonzero;"/><path d="M329.566,6.186c0,0.684 -0.554,1.237 -1.237,1.237c-0.683,0 -1.238,-0.553 -1.238,-1.237c0,-0.684 0.555,-1.237 1.238,-1.237c0.683,0 1.237,0.553 1.237,1.237" style="fill:#ff6131;fill-rule:nonzero;"/><path d="M440.906,0l-12.371,0l0,12.371l12.371,0l0,-12.371Zm-2.474,9.897l-7.423,0l0,-7.422l7.423,0l0,7.422Z" style="fill:#ff6131;fill-rule:nonzero;"/><path d="M456.37,0.619l0,11.135l-5.567,-5.568l5.567,-5.567Z" style="fill:#ff2e2e;fill-rule:nonzero;"/><path d="M449.566,6.186l-5.567,5.567l0,-11.134l5.567,5.567Z" style="fill:#ff2e2e;fill-rule:nonzero;"/><path d="M465.03,12.371l-5.567,0c0,-3.054 2.513,-5.567 5.567,-5.567c3.054,0 5.567,2.513 5.567,5.567l-5.567,0Z" style="fill:#ff6131;fill-rule:nonzero;"/><path d="M465.03,0l-5.567,0c0,3.054 2.513,5.567 5.567,5.567c3.054,0 5.567,-2.513 5.567,-5.567l-5.567,0Z" style="fill:#ff6131;fill-rule:nonzero;"/><path d="M473.69,2.784c0,-1.537 1.246,-2.783 2.784,-2.783c1.537,0 2.783,1.246 2.783,2.783c0,1.537 -1.246,2.784 -2.783,2.784c-1.538,0 -2.784,-1.247 -2.784,-2.784" style="fill:#ff2e2e;fill-rule:nonzero;"/><path d="M473.69,9.588c0,-1.537 1.246,-2.784 2.784,-2.784c1.537,0 2.783,1.247 2.783,2.784c0,1.537 -1.246,2.783 -2.783,2.783c-1.538,0 -2.784,-1.246 -2.784,-2.783" style="fill:#ff2e2e;fill-rule:nonzero;"/><path d="M480.494,2.784c0,-1.537 1.246,-2.783 2.783,-2.783c1.538,0 2.784,1.246 2.784,2.783c0,1.537 -1.246,2.784 -2.784,2.784c-1.537,0 -2.783,-1.247 -2.783,-2.784" style="fill:#ff2e2e;fill-rule:nonzero;"/><path d="M480.494,9.588c0,-1.537 1.246,-2.784 2.783,-2.784c1.538,0 2.784,1.247 2.784,2.784c0,1.537 -1.246,2.783 -2.784,2.783c-1.537,0 -2.783,-1.246 -2.783,-2.783" style="fill:#ff2e2e;fill-rule:nonzero;"/><path d="M504.492,0l-12.371,0l0,12.371l12.371,0l0,-12.371Zm-2.474,9.897l-7.422,0l0,-7.422l7.422,0l0,7.422Z" style="fill:#ff6131;fill-rule:nonzero;"/><path d="M574.389,0c-3.416,0 -6.186,2.77 -6.186,6.186c0,3.416 2.77,6.185 6.186,6.185c3.417,0 6.186,-2.769 6.186,-6.185c0,-3.416 -2.769,-6.186 -6.186,-6.186m0,2.475c2.047,0 3.712,1.664 3.712,3.711c0,2.046 -1.665,3.71 -3.712,3.71c-2.046,0 -3.711,-1.664 -3.711,-3.71c0,-2.047 1.665,-3.711 3.711,-3.711" style="fill:#ff2e2e;fill-rule:nonzero;"/><path d="M519.956,0.619l0,11.135l-5.567,-5.568l5.567,-5.567Z" style="fill:#ff2e2e;fill-rule:nonzero;"/><path d="M513.152,6.186l-5.567,5.567l0,-11.134l5.567,5.567Z" style="fill:#ff2e2e;fill-rule:nonzero;"/><path d="M565.111,12.371l-12.371,0l12.37,-12.371l0,12.371Z" style="fill:#ff6131;fill-rule:nonzero;"/><path d="M528.616,12.371l-5.567,0c0,-3.054 2.512,-5.567 5.567,-5.567c3.054,0 5.566,2.513 5.566,5.567l-5.566,0Z" style="fill:#ff6131;fill-rule:nonzero;"/><path d="M528.616,0l-5.567,0c0,3.054 2.512,5.567 5.567,5.567c3.054,0 5.566,-2.513 5.566,-5.567l-5.566,0Z" style="fill:#ff6131;fill-rule:nonzero;"/><path d="M537.276,2.784c0,-1.537 1.246,-2.783 2.784,-2.783c1.537,0 2.783,1.246 2.783,2.783c0,1.537 -1.246,2.784 -2.783,2.784c-1.538,0 -2.784,-1.247 -2.784,-2.784" style="fill:#ff2e2e;fill-rule:nonzero;"/><path d="M537.276,9.588c0,-1.537 1.246,-2.784 2.784,-2.784c1.537,0 2.783,1.247 2.783,2.784c0,1.537 -1.246,2.783 -2.783,2.783c-1.538,0 -2.784,-1.246 -2.784,-2.783" style="fill:#ff2e2e;fill-rule:nonzero;"/><path d="M544.08,2.784c0,-1.537 1.246,-2.783 2.783,-2.783c1.537,0 2.783,1.246 2.783,2.783c0,1.537 -1.246,2.784 -2.783,2.784c-1.537,0 -2.783,-1.247 -2.783,-2.784" style="fill:#ff2e2e;fill-rule:nonzero;"/><path d="M544.08,9.588c0,-1.537 1.246,-2.784 2.783,-2.784c1.537,0 2.783,1.247 2.783,2.784c0,1.537 -1.246,2.783 -2.783,2.783c-1.537,0 -2.783,-1.246 -2.783,-2.783" style="fill:#ff2e2e;fill-rule:nonzero;"/><path d="M595.42,0l-12.371,0l0,12.371l12.371,0l0,-12.371Zm-2.474,9.897l-7.423,0l0,-7.422l7.423,0l0,7.422Z" style="fill:#ff2e2e;fill-rule:nonzero;"/><path d="M665.318,0c-3.417,0 -6.186,2.77 -6.186,6.186c0,3.416 2.769,6.185 6.186,6.185c3.416,0 6.186,-2.769 6.186,-6.185c0,-3.416 -2.77,-6.186 -6.186,-6.186m0,2.475c2.046,0 3.711,1.664 3.711,3.711c0,2.046 -1.665,3.71 -3.711,3.71c-2.047,0 -3.712,-1.664 -3.712,-3.71c0,-2.047 1.665,-3.711 3.712,-3.711" style="fill:#ff6131;fill-rule:nonzero;"/><path d="M610.884,0.619l0,11.135l-5.566,-5.568l5.566,-5.567Z" style="fill:#ff2e2e;fill-rule:nonzero;"/><path d="M604.08,6.186l-5.567,5.567l0,-11.134l5.567,5.567Z" style="fill:#ff2e2e;fill-rule:nonzero;"/><path d="M656.039,12.371l-12.372,0l12.372,-12.371l0,12.371Z" style="fill:#ff2e2e;fill-rule:nonzero;"/><path d="M619.544,12.371l-5.567,0c0,-3.054 2.513,-5.567 5.567,-5.567c3.054,0 5.566,2.513 5.566,5.567l-5.566,0Z" style="fill:#ff6131;fill-rule:nonzero;"/><path d="M619.544,0l-5.567,0c0,3.054 2.513,5.567 5.567,5.567c3.054,0 5.566,-2.513 5.566,-5.567l-5.566,0Z" style="fill:#ff6131;fill-rule:nonzero;"/><path d="M628.203,2.784c0,-1.537 1.247,-2.783 2.784,-2.783c1.537,0 2.783,1.246 2.783,2.783c0,1.537 -1.246,2.784 -2.783,2.784c-1.537,0 -2.784,-1.247 -2.784,-2.784" style="fill:#ffa631;fill-rule:nonzero;"/><path d="M628.203,9.588c0,-1.537 1.247,-2.784 2.784,-2.784c1.537,0 2.783,1.247 2.783,2.784c0,1.537 -1.246,2.783 -2.783,2.783c-1.537,0 -2.784,-1.246 -2.784,-2.783" style="fill:#ffa631;fill-rule:nonzero;"/><path d="M635.008,2.784c0,-1.537 1.246,-2.783 2.783,-2.783c1.537,0 2.783,1.246 2.783,2.783c0,1.537 -1.246,2.784 -2.783,2.784c-1.537,0 -2.783,-1.247 -2.783,-2.784" style="fill:#ffa631;fill-rule:nonzero;"/><path d="M635.008,9.588c0,-1.537 1.246,-2.784 2.783,-2.784c1.537,0 2.783,1.247 2.783,2.784c0,1.537 -1.246,2.783 -2.783,2.783c-1.537,0 -2.783,-1.246 -2.783,-2.783" style="fill:#ffa631;fill-rule:nonzero;"/><path d="M575.626,6.186c0,0.684 -0.554,1.237 -1.237,1.237c-0.683,0 -1.237,-0.553 -1.237,-1.237c0,-0.684 0.554,-1.237 1.237,-1.237c0.683,0 1.237,0.553 1.237,1.237" style="fill:#ff6131;fill-rule:nonzero;"/><path d="M686.967,0l-12.371,0l0,12.371l12.371,0l0,-12.371Zm-2.475,9.897l-7.423,0l0,-7.422l7.423,0l0,7.422Z" style="fill:#ff6131;fill-rule:nonzero;"/><path d="M702.431,0.619l0,11.135l-5.567,-5.568l5.567,-5.567Z" style="fill:#ff2e2e;fill-rule:nonzero;"/><path d="M695.626,6.186l-5.566,5.567l0,-11.134l5.566,5.567Z" style="fill:#ff2e2e;fill-rule:nonzero;"/><path d="M711.09,12.371l-5.566,0c0,-3.054 2.512,-5.567 5.566,-5.567c3.055,0 5.567,2.513 5.567,5.567l-5.567,0Z" style="fill:#ff6131;fill-rule:nonzero;"/><path d="M711.09,0l-5.566,0c0,3.054 2.512,5.567 5.566,5.567c3.055,0 5.567,-2.513 5.567,-5.567l-5.567,0Z" style="fill:#ff6131;fill-rule:nonzero;"/><path d="M719.75,2.784c0,-1.537 1.246,-2.783 2.783,-2.783c1.537,0 2.784,1.246 2.784,2.783c0,1.537 -1.247,2.784 -2.784,2.784c-1.537,0 -2.783,-1.247 -2.783,-2.784" style="fill:#ff2e2e;fill-rule:nonzero;"/><path d="M719.75,9.588c0,-1.537 1.246,-2.784 2.783,-2.784c1.537,0 2.784,1.247 2.784,2.784c0,1.537 -1.247,2.783 -2.784,2.783c-1.537,0 -2.783,-1.246 -2.783,-2.783" style="fill:#ff2e2e;fill-rule:nonzero;"/><path d="M726.554,2.784c0,-1.537 1.246,-2.783 2.784,-2.783c1.537,0 2.783,1.246 2.783,2.783c0,1.537 -1.246,2.784 -2.783,2.784c-1.538,0 -2.784,-1.247 -2.784,-2.784" style="fill:#ff2e2e;fill-rule:nonzero;"/><path d="M726.554,9.588c0,-1.537 1.246,-2.784 2.784,-2.784c1.537,0 2.783,1.247 2.783,2.784c0,1.537 -1.246,2.783 -2.783,2.783c-1.538,0 -2.784,-1.246 -2.784,-2.783" style="fill:#ff2e2e;fill-rule:nonzero;"/><path d="M750.553,0l-12.371,0l0,12.371l12.371,0l0,-12.371Zm-2.475,9.897l-7.422,0l0,-7.422l7.422,0l0,7.422Z" style="fill:#ff6131;fill-rule:nonzero;"/><path d="M820.449,0c-3.416,0 -6.186,2.77 -6.186,6.186c0,3.416 2.77,6.185 6.186,6.185c3.417,0 6.186,-2.769 6.186,-6.185c0,-3.416 -2.769,-6.186 -6.186,-6.186m0,2.475c2.047,0 3.712,1.664 3.712,3.711c0,2.046 -1.665,3.71 -3.712,3.71c-2.046,0 -3.711,-1.664 -3.711,-3.71c0,-2.047 1.665,-3.711 3.711,-3.711" style="fill:#ff2e2e;fill-rule:nonzero;"/><path d="M766.017,0.619l0,11.135l-5.567,-5.568l5.567,-5.567Z" style="fill:#ff2e2e;fill-rule:nonzero;"/><path d="M759.213,6.186l-5.567,5.567l0,-11.134l5.567,5.567Z" style="fill:#ff2e2e;fill-rule:nonzero;"/><path d="M811.171,12.371l-12.371,0l12.371,-12.371l0,12.371Z" style="fill:#ff6131;fill-rule:nonzero;"/><path d="M774.677,12.371l-5.567,0c0,-3.054 2.512,-5.567 5.567,-5.567c3.054,0 5.566,2.513 5.566,5.567l-5.566,0Z" style="fill:#ff6131;fill-rule:nonzero;"/><path d="M774.677,0l-5.567,0c0,3.054 2.512,5.567 5.567,5.567c3.054,0 5.566,-2.513 5.566,-5.567l-5.566,0Z" style="fill:#ff6131;fill-rule:nonzero;"/><path d="M783.336,2.784c0,-1.537 1.246,-2.783 2.784,-2.783c1.537,0 2.783,1.246 2.783,2.783c0,1.537 -1.246,2.784 -2.783,2.784c-1.538,0 -2.784,-1.247 -2.784,-2.784" style="fill:#ff2e2e;fill-rule:nonzero;"/><path d="M783.336,9.588c0,-1.537 1.246,-2.784 2.784,-2.784c1.537,0 2.783,1.247 2.783,2.784c0,1.537 -1.246,2.783 -2.783,2.783c-1.538,0 -2.784,-1.246 -2.784,-2.783" style="fill:#ff2e2e;fill-rule:nonzero;"/><path d="M790.141,2.784c0,-1.537 1.246,-2.783 2.783,-2.783c1.537,0 2.783,1.246 2.783,2.783c0,1.537 -1.246,2.784 -2.783,2.784c-1.537,0 -2.783,-1.247 -2.783,-2.784" style="fill:#ff2e2e;fill-rule:nonzero;"/><path d="M790.141,9.588c0,-1.537 1.246,-2.784 2.783,-2.784c1.537,0 2.783,1.247 2.783,2.784c0,1.537 -1.246,2.783 -2.783,2.783c-1.537,0 -2.783,-1.246 -2.783,-2.783" style="fill:#ff2e2e;fill-rule:nonzero;"/><path d="M841.481,0l-12.371,0l0,12.371l12.371,0l0,-12.371Zm-2.475,9.897l-7.422,0l0,-7.422l7.422,0l0,7.422Z" style="fill:#ff2e2e;fill-rule:nonzero;"/><path d="M911.377,0c-3.416,0 -6.186,2.77 -6.186,6.186c0,3.416 2.77,6.185 6.186,6.185c3.417,0 6.187,-2.769 6.187,-6.185c0,-3.416 -2.77,-6.186 -6.187,-6.186m0,2.475c2.047,0 3.712,1.664 3.712,3.711c0,2.046 -1.665,3.71 -3.712,3.71c-2.046,0 -3.711,-1.664 -3.711,-3.71c0,-2.047 1.665,-3.711 3.711,-3.711" style="fill:#ff6131;fill-rule:nonzero;"/><path d="M856.944,0.619l0,11.135l-5.567,-5.568l5.567,-5.567Z" style="fill:#ff2e2e;fill-rule:nonzero;"/><path d="M850.141,6.186l-5.567,5.567l0,-11.134l5.567,5.567Z" style="fill:#ff2e2e;fill-rule:nonzero;"/><path d="M902.099,12.371l-12.371,0l12.371,-12.371l0,12.371Z" style="fill:#ff2e2e;fill-rule:nonzero;"/><path d="M865.605,12.371l-5.567,0c0,-3.054 2.512,-5.567 5.567,-5.567c3.054,0 5.566,2.513 5.566,5.567l-5.566,0Z" style="fill:#ff6131;fill-rule:nonzero;"/><path d="M865.605,0l-5.567,0c0,3.054 2.512,5.567 5.567,5.567c3.054,0 5.566,-2.513 5.566,-5.567l-5.566,0Z" style="fill:#ff6131;fill-rule:nonzero;"/><path d="M874.264,2.784c0,-1.537 1.247,-2.783 2.784,-2.783c1.537,0 2.783,1.246 2.783,2.783c0,1.537 -1.246,2.784 -2.783,2.784c-1.537,0 -2.784,-1.247 -2.784,-2.784" style="fill:#ffa631;fill-rule:nonzero;"/><path d="M874.264,9.588c0,-1.537 1.247,-2.784 2.784,-2.784c1.537,0 2.783,1.247 2.783,2.784c0,1.537 -1.246,2.783 -2.783,2.783c-1.537,0 -2.784,-1.246 -2.784,-2.783" style="fill:#ffa631;fill-rule:nonzero;"/><path d="M881.069,2.784c0,-1.537 1.246,-2.783 2.783,-2.783c1.537,0 2.783,1.246 2.783,2.783c0,1.537 -1.246,2.784 -2.783,2.784c-1.537,0 -2.783,-1.247 -2.783,-2.784" style="fill:#ffa631;fill-rule:nonzero;"/><path d="M881.069,9.588c0,-1.537 1.246,-2.784 2.783,-2.784c1.537,0 2.783,1.247 2.783,2.784c0,1.537 -1.246,2.783 -2.783,2.783c-1.537,0 -2.783,-1.246 -2.783,-2.783" style="fill:#ffa631;fill-rule:nonzero;"/><path d="M821.687,6.186c0,0.684 -0.554,1.237 -1.237,1.237c-0.683,0 -1.237,-0.553 -1.237,-1.237c0,-0.684 0.554,-1.237 1.237,-1.237c0.683,0 1.237,0.553 1.237,1.237" style="fill:#ff6131;fill-rule:nonzero;"/><path d="M933.028,0l-12.371,0l0,12.371l12.371,0l0,-12.371Zm-2.475,9.897l-7.423,0l0,-7.422l7.423,0l0,7.422Z" style="fill:#ff6131;fill-rule:nonzero;"/><path d="M948.491,0.619l0,11.135l-5.567,-5.568l5.567,-5.567Z" style="fill:#ff2e2e;fill-rule:nonzero;"/><path d="M941.687,6.186l-5.566,5.567l0,-11.134l5.566,5.567Z" style="fill:#ff2e2e;fill-rule:nonzero;"/><path d="M957.151,12.371l-5.566,0c0,-3.054 2.512,-5.567 5.566,-5.567c3.055,0 5.567,2.513 5.567,5.567l-5.567,0Z" style="fill:#ff6131;fill-rule:nonzero;"/><path d="M957.151,0l-5.566,0c0,3.054 2.512,5.567 5.566,5.567c3.055,0 5.567,-2.513 5.567,-5.567l-5.567,0Z" style="fill:#ff6131;fill-rule:nonzero;"/><path d="M965.811,2.784c0,-1.537 1.246,-2.783 2.783,-2.783c1.537,0 2.783,1.246 2.783,2.783c0,1.537 -1.246,2.784 -2.783,2.784c-1.537,0 -2.783,-1.247 -2.783,-2.784" style="fill:#ff2e2e;fill-rule:nonzero;"/><path d="M965.811,9.588c0,-1.537 1.246,-2.784 2.783,-2.784c1.537,0 2.783,1.247 2.783,2.784c0,1.537 -1.246,2.783 -2.783,2.783c-1.537,0 -2.783,-1.246 -2.783,-2.783" style="fill:#ff2e2e;fill-rule:nonzero;"/><path d="M972.614,2.784c0,-1.537 1.246,-2.783 2.784,-2.783c1.537,0 2.783,1.246 2.783,2.783c0,1.537 -1.246,2.784 -2.783,2.784c-1.538,0 -2.784,-1.247 -2.784,-2.784" style="fill:#ff2e2e;fill-rule:nonzero;"/><path d="M972.614,9.588c0,-1.537 1.246,-2.784 2.784,-2.784c1.537,0 2.783,1.247 2.783,2.784c0,1.537 -1.246,2.783 -2.783,2.783c-1.538,0 -2.784,-1.246 -2.784,-2.783" style="fill:#ff2e2e;fill-rule:nonzero;"/></svg>